<svg width="512" height="491" viewBox="0 0 512 491" fill="none" xmlns="http://www.w3.org/2000/svg">
<path d="M373.333 491C296.875 491 234.667 428.792 234.667 352.333C234.667 275.875 296.875 213.667 373.333 213.667C449.792 213.667 512 275.875 512 352.333C512 428.792 449.792 491 373.333 491ZM373.333 245.667C314.517 245.667 266.667 293.517 266.667 352.333C266.667 411.149 314.517 459 373.333 459C432.149 459 480 411.149 480 352.333C480 293.517 432.149 245.667 373.333 245.667Z" fill="white"/>
<path d="M373.333 427C364.501 427 357.333 419.832 357.333 411V293.667C357.333 284.835 364.501 277.667 373.333 277.667C382.165 277.667 389.333 284.835 389.333 293.667V411C389.333 419.832 382.165 427 373.333 427Z" fill="white"/>
<path d="M432 368.333H314.667C305.835 368.333 298.667 361.165 298.667 352.333C298.667 343.501 305.835 336.333 314.667 336.333H432C440.832 336.333 448 343.501 448 352.333C448 361.165 440.832 368.333 432 368.333Z" fill="white"/>
<path d="M197.333 299H48C21.5253 299 0 277.475 0 251V48.3334C0 21.8587 21.5253 0.333374 48 0.333374H421.333C447.808 0.333374 469.333 21.8587 469.333 48.3334V176.333C469.333 185.165 462.165 192.333 453.333 192.333C444.501 192.333 437.333 185.165 437.333 176.333V48.3334C437.333 39.5014 430.165 32.3334 421.333 32.3334H48C39.168 32.3334 32 39.5014 32 48.3334V251C32 259.832 39.168 267 48 267H197.333C206.165 267 213.333 274.168 213.333 283C213.333 291.832 206.165 299 197.333 299Z" fill="white"/>
<path d="M234.688 188.643C226.069 188.643 217.451 186.68 209.6 182.755L8.89607 83.3626C0.981401 79.4373 -2.26127 69.8586 1.66407 61.9226C5.5894 54.008 15.1681 50.7866 23.1041 54.6906L223.851 154.104C230.528 157.453 238.784 157.453 245.419 154.125L446.229 54.6906C454.123 50.744 463.765 54.008 467.669 61.9226C471.595 69.8586 468.352 79.4373 460.437 83.3626L259.691 182.776C251.883 186.68 243.285 188.643 234.688 188.643V188.643Z" fill="white"/>
</svg>
