<svg width="32" height="32" viewBox="0 0 32 32" fill="none" xmlns="http://www.w3.org/2000/svg">
<circle cx="16" cy="16" r="16" fill="white"/>
<g clip-path="url(#clip0)">
<path d="M22.9658 16.8697C22.9138 16.7451 22.7925 16.6638 22.6579 16.6638H19.0065V8.33323C19.0065 8.14929 18.8572 8 18.6732 8H13.3417C13.1577 8 13.0084 8.14929 13.0084 8.33323V16.6638H9.343C9.20838 16.6638 9.08708 16.7451 9.0351 16.8691C8.98377 16.9937 9.01176 17.137 9.10707 17.2323L15.7549 23.9021C15.8175 23.9647 15.9021 24 15.9908 24C16.0794 24 16.1641 23.9647 16.2267 23.9027L22.8938 17.2329C22.9891 17.1376 23.0178 16.9943 22.9658 16.8697Z" fill="#A6BCD6"/>
</g>
<defs>
<clipPath id="clip0">
<rect x="8" y="8" width="16" height="16" fill="white"/>
</clipPath>
</defs>
</svg>
